# xmcd
# Track frame offsets:
# 150
# 10007
# 26235
# 45904
# 58624
# 70298
# 85210
# 113648
# 128685
# 142012
# 155607
# 167609
# 179018
# 191568
# 206486
# 218151
# 230752
# 244118
# 256743
# 270578
#
# Disc length: 3823 seconds
# Revision: 0
# Processed by: cddbd v1.5PL3 Copyright (c) Steve Scherf et al.
# Submitted via: VisiTrax 2.9.9.209 - For more info visit www.synapsa.com
#
DISCID=190eed14
DTITLE=Charles, Ray - His Greatest Hits [CD2]
DYEAR=1992
DGENRE=Soul
TTITLE0=Busted
TTITLE1=Without Love (There Is Nothing)
TTITLE2=That Lucky Old Sun
TTITLE3=My Heart Cries For You
TTITLE4=Baby Don't You Cry
TTITLE5=Smack Dab In The Middle
TTITLE6=Makin' Whoopee, Parts 1 and 2
TTITLE7=I'm A Fool To Care
TTITLE8=Crying Time
TTITLE9=Let's Go Get Stoned
TTITLE10=Together Again
TTITLE11=I Chose To Sing The Blues
TTITLE12=I Don't Need No Doctor
TTITLE13=Here We Go Again
TTITLE14=In The Heat Of The Night
TTITLE15=Yesterday
TTITLE16=Eleanor Rigby
TTITLE17=If You Were Mine
TTITLE18=Don't Change On Me
TTITLE19=America The Beautiful
EXTD=DCC Compact Classics - Sandstone Music\nCompilation - Remastered\n1992
EXTT0=
EXTT1=
EXTT2=
EXTT3=
EXTT4=
EXTT5=
EXTT6=
EXTT7=
EXTT8=
EXTT9=
EXTT10=
EXTT11=
EXTT12=
EXTT13=
EXTT14=
EXTT15=
EXTT16=
EXTT17=
EXTT18=
EXTT19=
PLAYORDER=
